<?xml version="1.0" encoding="iso-8859-1"?>
<!-- Generator: Adobe Illustrator 19.0.0, SVG Export Plug-In . SVG Version: 6.00 Build 0)  -->
<svg version="1.1" id="Layer_1" xmlns="http://www.w3.org/2000/svg" xmlns:xlink="http://www.w3.org/1999/xlink" x="0px" y="0px"
	 viewBox="0 0 512.006 512.006" style="enable-background:new 0 0 512.006 512.006;" xml:space="preserve">
<g>
	<g>
		<g>
			<path d="M510.181,318.996l-36.625-46.618l-6.716,6.724c-15.258,13.466-30.601,19.567-48.7,19.567
				c-42.351,0-76.8-34.449-76.8-76.8c0-19.823,5.811-34.347,19.439-48.572c0.256-0.273,0.529-0.521,0.828-0.768l6.357-5.086
				c-8.593-3.951-18.628-8.175-30.43-12.646l-23.313-23.313l-2.074-4.147c-3.49-6.963-9.421-12.049-16.444-14.583L264.54,73.799
				V59.736c0-4.719-3.823-8.533-8.533-8.533c-9.412,0-17.067-7.663-17.067-17.067c0-9.412,7.654-17.067,17.067-17.067
				c9.404,0,17.067,7.654,17.067,17.067c0,4.71,3.814,8.533,8.533,8.533c4.71,0,8.533-3.823,8.533-8.533
				c0-18.825-15.309-34.133-34.133-34.133c-18.833,0-34.133,15.309-34.133,34.133c0,15.872,10.888,29.252,25.6,33.05v6.613
				l-31.172,38.963c-7.031,2.534-12.954,7.629-16.435,14.601l-2.048,4.113l-23.322,23.322c-11.81,4.471-21.845,8.695-30.447,12.655
				l6.357,5.077c0.29,0.247,0.563,0.495,0.828,0.768c13.628,14.234,19.439,28.757,19.439,48.572c0,42.351-34.458,76.8-76.8,76.8
				c-18.108,0-33.451-6.101-48.316-19.2c-0.324-0.29-0.631-0.606-0.913-0.939l-5.675-6.81L1.825,318.996
				c-1.442,1.826-2.065,4.173-1.741,6.477c0.333,2.313,1.596,4.386,3.49,5.734l59.733,42.667c2.62,1.877,6.076,2.091,8.917,0.614
				l47.266-24.755V503.47c0,4.71,3.823,8.533,8.533,8.533H238.94v-8.533c0-42.351,34.449-76.8,76.8-76.8
				c42.342,0,76.8,34.449,76.8,76.8V349.742l47.241,24.747c2.833,1.476,6.289,1.263,8.917-0.614l59.733-42.667
				c1.894-1.348,3.157-3.422,3.49-5.734C512.246,323.169,511.623,320.822,510.181,318.996z M256.007,90.456l16.375,20.48h-32.759
				L256.007,90.456z M215.132,134.975c1.613-3.209,4.429-5.513,7.757-6.477c0.162-0.026,0.324,0,0.486-0.043
				c1.246-0.307,2.21-0.452,3.038-0.452h59.196c0.819,0,1.775,0.145,3.021,0.452c0.188,0.051,0.375,0.043,0.563,0.077
				c3.294,0.964,6.093,3.243,7.689,6.434l0.853,1.715l-10.368,22.468c-5.786,12.57-17.51,20.07-31.351,20.07
				c-13.833,0-25.549-7.501-31.343-20.053l-3.465-7.501l-6.912-14.993L215.132,134.975z M273.074,358.403H238.94
				c-23.526,0-42.667-19.14-42.667-42.667c0-23.526,19.14-42.667,42.667-42.667h34.133c23.518,0,42.667,19.14,42.667,42.667
				C315.74,339.263,296.592,358.403,273.074,358.403z M314.862,259.817c-1.229,2.449-3.567,4.173-6.263,4.617
				c-0.461,0.077-0.93,0.111-1.382,0.111c-2.244,0-4.42-0.888-6.033-2.492c-2.441-2.441-3.183-6.118-1.852-9.31
				c1.314-3.191,4.42-5.274,7.876-5.274h0.017c2.961,0,5.7,1.527,7.262,4.045C316.048,254.032,316.184,257.172,314.862,259.817z"/>
			<path d="M315.736,443.734c-32.93,0-59.733,26.803-59.733,59.733V512H375.47v-8.533
				C375.47,470.537,348.666,443.734,315.736,443.734z"/>
			<path d="M93.87,281.6c32.93,0,59.733-26.803,59.733-59.733c0-15.223-4.028-25.463-14.319-36.369l-12.075-9.66
				c-22.093,11.955-29.466,20.463-31.727,23.953l-45.73,58.206l7.578,9.097C68.875,277.12,80.174,281.6,93.87,281.6z"/>
			<path d="M418.136,281.6c13.892,0,25.31-4.608,37.026-14.933l7.782-7.791l-46.293-58.914c-2.125-3.379-9.37-11.964-31.846-24.124
				l-12.083,9.66c-10.291,10.897-14.319,21.137-14.319,36.369C358.403,254.797,385.206,281.6,418.136,281.6z"/>
			<path d="M273.07,290.134h-34.133c-14.114,0-25.6,11.486-25.6,25.6s11.486,25.6,25.6,25.6h34.133c14.114,0,25.6-11.486,25.6-25.6
				S287.184,290.134,273.07,290.134z M264.536,324.267H247.47c-4.719,0-8.533-3.814-8.533-8.533s3.814-8.533,8.533-8.533h17.067
				c4.719,0,8.533,3.814,8.533,8.533S269.255,324.267,264.536,324.267z"/>
		</g>
	</g>
</g>
<g>
</g>
<g>
</g>
<g>
</g>
<g>
</g>
<g>
</g>
<g>
</g>
<g>
</g>
<g>
</g>
<g>
</g>
<g>
</g>
<g>
</g>
<g>
</g>
<g>
</g>
<g>
</g>
<g>
</g>
</svg>
